<svg xmlns="http://www.w3.org/2000/svg" xmlns:xlink="http://www.w3.org/1999/xlink" id="Layer_1" x="0px" y="0px" viewBox="0 0 1600 400" style="enable-background:new 0 0 1600 400;" xml:space="preserve"><path id="logo-a1" d="M264.6,175.7c3.8-20,21.5-33.8,46.1-33.8c28.4,0,50.7,12.3,50.7,50.7v71.5h-24.6l-3.1-15.4 c-8.5,10.8-20,17.7-36.9,17.7c-20.7,0-36.9-13.1-36.9-36.9s21.5-39.2,51.5-39.2h20v-5.4c0-13.8-10-17.7-21.5-17.7 c-8.5,0-16.9,3.1-20.7,13.8L264.6,175.7z M303.8,241c13.8,0,27.7-9.2,27.7-24.6v-2.3h-19.2c-13.1-0.8-20.7,4.6-20.7,15.4 C291.5,234.9,296.1,241,303.8,241z"></path><path id="logo-a2" d="M844,175.7c3.8-20,21.5-33.8,46.1-33.8c28.4,0,50.7,12.3,50.7,50.7v71.5h-24.6l-3.1-15.4 c-8.5,10.8-20,17.7-36.9,17.7c-20.7,0-36.9-13.1-36.9-36.9s21.5-39.2,51.5-39.2h20v-5.4c0-13.8-10-17.7-21.5-17.7 c-8.5,0-16.9,3.1-20.7,13.8L844,175.7z M883.2,241c13.8,0,27.7-9.2,27.7-24.6v-2.3h-20c-13.1,0-20.7,4.6-20.7,15.4 C870.9,234.9,875.5,241,883.2,241z"></path><path id="logo-r" d="M967.7,264.8V143.4h30v20c8.5-14.6,22.3-21.5,35.3-21.5c5.4,0,10,0.8,14.6,2.3l-5.4,27.7 c-3.8-2.3-7.7-3.8-12.3-3.8c-17.7,0-32.3,14.6-32.3,53v43L967.7,264.8L967.7,264.8z"></path><path id="logo-d" d="M1111.4,141.9c12.3,0,23.8,6.1,29.2,13.1V95h30v169.8h-30v-12.3c-3.8,6.1-14.6,14.6-29.2,14.6 c-36.1,0-54.6-25.4-54.6-62.2S1075.3,141.9,1111.4,141.9z M1116.1,241c15.4,0,27.7-13.1,27.7-36.9s-12.3-36.9-27.7-36.9 c-15.4,0-27.7,13.1-27.7,36.9S1100.7,241,1116.1,241z"></path><path id="logo-s" d="M1278.2,161.1l-17.7,16.1c-5.4-7.7-13.8-10.8-20-10.8s-11.5,3.8-11.5,10c0,5.4,4.6,9.2,11.5,11.5 c16.9,6.1,43.8,11.5,43.8,36.9c0,22.3-16.9,40-43,40c-25.4,0-42.3-17.7-47.6-32.3l23.8-13.1c4.6,11.5,12.3,20,24.6,20 c9.2,0,15.4-4.6,15.4-13.1c0-10-15.4-12.3-30-18.4c-13.1-5.4-24.6-13.8-24.6-32.3s15.4-35.3,38.4-35.3 C1256.7,141.1,1271.3,149.6,1278.2,161.1z"></path><polygon id="logo-w2" points="658.8,143.4 637.3,227.2 616.6,143.4 588.9,143.4 568.9,227.2 552,178.8 549.7,184.1 540.5,215.7  555.9,264.8 582,264.8 602.7,186.5 623.5,264.8 650.4,264.8 688.8,143.4 "></polygon><polygon id="logo-w3" points="802.5,143.4 781,227.2 760.3,143.4 732.6,143.4 712.6,227.2 695.7,178.8 693.4,184.1 683.4,215.7  699.6,264.8 725.7,264.8 746.4,186.5 767.2,264.8 793.3,264.8 832.5,143.4 "></polygon><path id="logo-w1" d="M545.1,143.4l-38.4,120.6h-26.1l-20.7-77.6L439,264.8h-26.1l-38.4-120.6h30l21.5,83l20.7-83h27.7l20.7,83 l21.5-83L545.1,143.4L545.1,143.4z"></path><path id="logo-p" d="M1323.5,225.6c11.5,0,20,8.5,20,20c0,11.5-8.5,20-20,20s-20-8.5-20-20C1303.6,234.1,1312,225.6,1323.5,225.6z"></path></svg>