<svg xmlns="http://www.w3.org/2000/svg" xmlns:xlink="http://www.w3.org/1999/xlink" id="Layer_1" x="0px" y="0px" viewBox="0 0 1600 400" style="enable-background:new 0 0 1600 400;" xml:space="preserve"><g>	<path d="M271.1,119.9H349c14.8,0,26,3.7,34.2,9.9c9.1,7.4,14,18.1,14,31.3c0,15.3-6.2,24.7-18.6,30.5v0.8c16.5,5.4,26,20.2,26,37.9  c0,16.9-6.6,30.1-17.3,38.4c-9.1,6.6-20.6,9.5-36.3,9.5h-80V119.9z M341.2,181.7c8.2,0,14.4-4.5,14.4-14c0-9.1-6.2-13.6-14.8-13.6  H314v27.2h27.2V181.7z M344.9,243.2c9.5,0,16.5-5.8,16.5-16.1c0-11.1-7.4-16.1-16.5-16.1h-30.5v32.6h30.5V243.2z"></path>	<path d="M411.7,119.9h40.8v158.8h-40.8V119.9z"></path>	<path d="M460.8,222.1c0-35.9,23.1-59.8,59-59.8c35.9,0,58.6,24.3,58.6,59.8c0,35.9-22.7,59.8-58.6,59.8  C483.9,281.9,460.8,258,460.8,222.1z M537.5,222.1c0-19.8-6.2-32.2-18.6-32.2c-12.4,0-18.1,12.4-18.1,32.2s5.8,32.6,18.1,32.6  C531.3,254.3,537.5,241.9,537.5,222.1z"></path>	<path d="M582.9,222.1c0-35.9,23.1-59.8,59-59.8c35.9,0,58.1,23.9,58.1,59.8s-22.7,59.8-58.6,59.8C606,281.9,582.9,258,582.9,222.1z   M659.6,222.1c0-19.8-6.2-32.2-18.6-32.2c-12.4,0-18.1,12.4-18.1,32.2s5.8,32.6,18.1,32.6C653.4,254.3,659.6,241.9,659.6,222.1z"></path>	<path d="M708.2,165.2h37.9v16.9h0.8c7.4-13.2,17.7-20.2,34.2-20.2c14.4,0,25.2,7,30.5,19.4h0.8c9.1-14.8,21-19.4,35.1-19.4  c26.4,0,37.5,19.4,37.5,45.4v70.9h-39.6v-63.9c0-11.5-3.7-19-13.6-19s-14.8,9.1-14.8,21.4v61.4h-39.6v-63.9c0-11.5-3.7-19-13.6-19  c-9.9,0-14.8,9.1-14.8,21.4v61.4h-40.8V165.2z"></path>	<path d="M935,263.4h-0.4v14.8h-37.9V119.9h39.6v56.9h0.8c7.4-9.9,17.7-15.3,32.2-15.3c28.5,0,44.9,25.6,44.9,59.8  c0,38.4-17.7,60.6-47.4,60.6C954.4,281.9,941.6,276.2,935,263.4z M973.4,220.9c0-18.1-6.6-30.1-18.6-30.1  c-12.4,0-19.8,12-19.8,30.1s7.8,30.1,19.8,30.1C966.8,251,973.4,239.5,973.4,220.9z"></path>	<path d="M1018.7,221.7c0-35.5,23.5-59.8,57.3-59.8c16.9,0,29.7,5.4,39.6,14.8c13.2,12.8,19,32.6,18.6,55.7h-75.9  c1.6,14,8.2,21.4,20.2,21.4c7,0,13.2-3.3,15.7-10.7h38.4c-6.6,26-26.8,38.8-55.3,38.8C1042.3,281.5,1018.7,257.6,1018.7,221.7z   M1058.3,209.8h36.3c-0.8-13.6-8.2-20.6-17.7-20.6C1065.8,188.7,1059.6,196.6,1058.3,209.8z"></path>	<path d="M1179.2,184.6h0.8c8.2-15.7,19-21.9,32.6-21.9c3.3,0,5.4,0.4,6.6,1.2v34.6h-0.8c-23.5-4.1-37.1,7-37.1,32.6v47.4h-40V165.2  h37.9V184.6z"></path>	<path d="M1223.3,278.6h38.4c1.6,4.9,6.6,9.5,16.1,9.5c12.8,0,17.3-7.8,17.3-19.8v-8.2h-0.8c-6.2,7.4-14.8,12.8-27.2,12.8  c-24.3,0-45.8-18.1-45.8-53.6c0-32.6,17.3-57.7,43.7-57.7c15.3,0,24.3,6.2,30.5,15.7h0.8v-12.4h37.9V263c0,18.1-6.2,32.2-15.7,40.4  c-9.9,8.7-23.9,12.4-40,12.4C1248,316.2,1227,303.8,1223.3,278.6z M1296.7,217.6c0-14-6.6-25.6-18.1-25.6  c-11.1,0-18.1,9.9-18.1,25.6c0,15.3,7,26,18.1,26C1289.7,243.6,1296.7,232.4,1296.7,217.6z"></path></g></svg>