<?xml version="1.0" standalone="no"?>
<!DOCTYPE svg PUBLIC "-//W3C//DTD SVG 20010904//EN"
 "http://www.w3.org/TR/2001/REC-SVG-20010904/DTD/svg10.dtd">
<svg version="1.0" xmlns="http://www.w3.org/2000/svg"
 width="501.000000pt" height="151.000000pt" viewBox="0 0 501.000000 151.000000"
 preserveAspectRatio="xMidYMid meet">

<g transform="translate(0.000000,151.000000) scale(0.100000,-0.100000)"
fill="#000000" stroke="none">
<path d="M1948 1174 c-34 -18 -48 -43 -48 -86 0 -48 18 -67 101 -108 82 -39
98 -65 57 -94 -30 -21 -63 -20 -116 4 l-43 20 3 -32 c4 -42 35 -58 110 -58 50
0 62 4 90 29 26 23 33 37 33 68 0 57 -25 88 -92 113 -71 26 -83 36 -83 66 0
45 79 56 138 18 21 -14 22 -13 22 16 0 26 -6 33 -35 46 -44 18 -102 17 -137
-2z"/>
<path d="M3383 1175 c-38 -16 -53 -42 -53 -90 0 -45 29 -75 95 -100 67 -24 89
-46 81 -79 -9 -37 -64 -45 -127 -18 l-49 20 0 -29 c0 -37 40 -59 110 -59 89 0
140 50 126 122 -9 44 -29 63 -94 89 -72 28 -82 36 -82 65 0 45 60 57 123 25
l37 -19 0 34 c0 30 -4 34 -37 43 -51 14 -91 13 -130 -4z"/>
<path d="M3738 1174 c-35 -18 -48 -43 -48 -89 0 -45 29 -75 95 -100 67 -24 89
-46 81 -79 -9 -37 -64 -45 -127 -18 l-49 20 0 -29 c0 -37 40 -59 110 -59 83 0
130 40 130 109 0 42 -32 76 -97 101 -73 29 -83 37 -83 66 0 45 60 57 123 25
l37 -19 0 33 c0 28 -5 35 -31 44 -44 15 -109 13 -141 -5z"/>
<path d="M1100 1000 l0 -180 75 0 c84 0 134 16 159 51 25 36 20 85 -10 116
-14 14 -22 28 -16 32 40 26 37 107 -5 141 -21 17 -40 20 -114 20 l-89 0 0
-180z m168 118 c38 -38 -9 -92 -75 -86 -38 3 -38 3 -41 51 l-3 47 53 0 c30 0
59 -5 66 -12z m3 -148 c22 -12 26 -59 7 -78 -7 -7 -38 -12 -70 -12 l-58 0 0
50 0 50 51 0 c28 0 59 -5 70 -10z"/>
<path d="M1482 1035 l3 -145 32 -32 c27 -27 41 -32 90 -35 46 -3 65 0 91 17
51 31 62 71 62 215 l0 125 -29 0 -29 0 -4 -135 c-3 -150 -8 -161 -70 -172 -30
-4 -41 -1 -62 20 -25 25 -26 30 -26 157 l0 130 -31 0 -30 0 3 -145z"/>
<path d="M2290 1000 l0 -180 30 0 30 0 0 180 0 180 -30 0 -30 0 0 -180z"/>
<path d="M2520 999 l0 -180 28 3 27 3 3 114 3 115 119 -119 120 -120 0 183 0
182 -30 0 -30 0 0 -112 0 -113 -113 113 c-62 61 -116 112 -120 112 -4 0 -7
-81 -7 -181z"/>
<path d="M2980 1000 l0 -180 105 0 105 0 0 30 0 30 -75 0 -75 0 0 55 0 55 70
0 c68 0 70 1 70 25 0 24 -2 25 -70 25 l-70 0 0 45 0 45 75 0 c73 0 75 1 75 25
l0 25 -105 0 -105 0 0 -180z"/>
<path d="M1320 485 l0 -175 30 0 30 0 0 175 0 175 -30 0 -30 0 0 -175z"/>
<path d="M1560 490 l0 -170 30 0 29 0 3 106 3 106 90 -83 c50 -45 102 -94 118
-108 l27 -25 0 172 0 172 -25 0 -25 0 0 -105 c0 -58 -4 -105 -8 -105 -4 0 -60
47 -125 105 l-117 106 0 -171z"/>
<path d="M2031 634 c-25 -21 -31 -33 -31 -65 0 -50 31 -81 103 -105 29 -9 58
-21 65 -27 20 -16 14 -45 -13 -63 -29 -19 -95 -13 -132 12 -22 14 -23 13 -23
-15 0 -35 19 -49 83 -57 114 -16 196 73 137 149 -11 13 -50 37 -87 52 -85 34
-98 49 -67 79 20 20 86 21 124 1 30 -15 30 -15 30 14 0 24 -6 31 -31 40 -58
20 -124 14 -158 -15z"/>
<path d="M2390 485 l0 -175 35 0 35 0 0 175 0 175 -35 0 -35 0 0 -175z"/>
<path d="M2630 485 l0 -175 88 0 c103 0 157 20 193 71 33 47 35 163 3 206 -44
60 -78 73 -185 73 l-99 0 0 -175z m211 97 c27 -24 33 -37 36 -83 5 -72 -19
-113 -77 -129 -23 -6 -56 -10 -73 -8 l-32 3 -3 123 -3 122 61 0 c51 0 64 -4
91 -28z"/>
<path d="M3050 485 l0 -175 110 0 110 0 0 25 c0 23 -3 24 -77 27 l-78 3 -3 53
-3 52 70 0 71 0 0 30 0 30 -70 0 -70 0 0 40 0 40 80 0 c79 0 80 0 80 25 l0 25
-110 0 -110 0 0 -175z"/>
<path d="M3450 485 l0 -175 25 0 c24 0 25 2 25 70 0 67 1 70 24 70 18 0 40
-19 83 -70 51 -61 62 -70 92 -70 l34 0 -19 23 c-11 12 -39 44 -62 71 l-42 49
28 14 c68 33 69 144 1 179 -18 9 -58 14 -109 14 l-80 0 0 -175z m164 109 c42
-42 -1 -98 -71 -92 l-38 3 -3 53 -3 52 50 0 c32 0 55 -6 65 -16z"/>
</g>
</svg>
