<svg xmlns:cc="http://creativecommons.org/ns#" xmlns:dc="http://purl.org/dc/elements/1.1/" xmlns:inkscape="http://www.inkscape.org/namespaces/inkscape" xmlns:rdf="http://www.w3.org/1999/02/22-rdf-syntax-ns#" xmlns:sodipodi="http://sodipodi.sourceforge.net/DTD/sodipodi-0.dtd" xmlns:svg="http://www.w3.org/2000/svg" xmlns="http://www.w3.org/2000/svg" xmlns:xlink="http://www.w3.org/1999/xlink" id="svg2" inkscape:version="0.48.4 r9939" sodipodi:docname="New document 1" x="0px" y="0px" viewBox="0 0 1600 400" style="enable-background:new 0 0 1600 400;" xml:space="preserve"><g id="layer1" transform="translate(89.312494,-287.74999)" inkscape:groupmode="layer" inkscape:label="Layer 1">	<g id="g3017" transform="matrix(16.779609,0,0,16.779609,-89.326214,287.74733)">		<path id="path3003" inkscape:connector-curvature="0" d="M31.7,5.2c-3.9,0-6.9,3.1-6.9,7c0,3.9,3.1,7,6.9,7c3.9,0,6.9-3.1,6.9-7   C38.6,8.3,35.5,5.2,31.7,5.2z M31.7,8.1c3.1,0,5.5,2,6.4,4c-1,2.1-3.3,4.1-6.4,4.1c-3.2,0-5.5-2-6.4-4.1   C26.2,10.1,28.5,8.1,31.7,8.1L31.7,8.1L31.7,8.1z M31.7,8.5c-2.1,0-3.7,1.7-3.7,3.7c0,2.1,1.7,3.7,3.7,3.7s3.7-1.7,3.7-3.7   C35.4,10.1,33.7,8.5,31.7,8.5z"></path>		<path id="path3005" inkscape:connector-curvature="0" d="M45.2,6C41.6,6,39,8.8,39,12.1v0c0,3.4,2.6,6.1,6.1,6.1   c2.3,0,3.6-0.8,4.8-2.1l-1.7-1.7c-0.9,0.8-1.8,1.4-3.1,1.4c-2,0-3.4-1.7-3.4-3.7v0c0-2,1.4-3.7,3.4-3.7c1.2,0,2.1,0.5,3,1.3   l1.7-1.9C48.7,6.7,47.4,6,45.2,6z"></path>		<path id="path3007" inkscape:connector-curvature="0" d="M50.9,6.2V18h5.6c2.7,0,4.4-1.1,4.4-3.2v0c0-1.6-0.8-2.4-2.2-2.9   c0.8-0.5,1.5-1.2,1.5-2.5v0c0-0.8-0.3-1.5-0.8-2c-0.7-0.7-1.7-1-3.1-1H50.9z M53.4,8.5H56c1.1,0,1.7,0.4,1.7,1.2v0   c0,0.9-0.7,1.2-1.9,1.2l-2.4,0V8.5L53.4,8.5z M53.4,13.1h3c1.3,0,1.9,0.5,1.9,1.3v0c0,0.9-0.7,1.3-1.8,1.3l-3.1,0V13.1L53.4,13.1z   "></path>		<path id="path3009" inkscape:connector-curvature="0" d="M66,6c-2.4,0-4.1,1.4-4.1,3.6v0c0,2.3,1.5,3,3.9,3.6   c2,0.5,2.4,0.8,2.4,1.5v0c0,0.7-0.6,1.1-1.7,1.1c-1.4,0-2.5-0.6-3.5-1.4l-1.5,1.8c1.4,1.3,3.2,1.9,5,1.9v0c2.5,0,4.3-1.3,4.3-3.7   v0c0-2.1-1.4-2.9-3.7-3.5c-2-0.5-2.5-0.8-2.5-1.5v0c0-0.6,0.5-1,1.5-1s2,0.4,3.1,1.2l1.3-2C69.2,6.6,67.7,6,66,6z"></path>	</g></g></svg>