<svg xmlns="http://www.w3.org/2000/svg" width="862" height="236" viewBox="0 0 862 236" fill="none"><path d="M492.779 113.179L499.857 106.802L487.766 92.9713V91.4999C492.484 85.7124 495.139 77.9631 495.139 69.0366C495.139 49.3199 481.868 35.1945 463.289 35.1945C444.71 35.1945 431.44 49.3199 431.44 69.0366C431.44 88.7533 444.71 102.879 463.289 102.879C469.089 102.879 474.397 101.505 479.017 98.955H480.295L492.779 113.179ZM441.467 69.0366C441.467 54.1264 450.117 44.4152 463.289 44.4152C476.461 44.4152 485.112 54.1264 485.112 69.0366C485.112 74.9222 483.736 80.023 481.278 84.0449H479.902L466.267 69.3829L459.091 75.6609L472.824 90.4209V91.6961C469.974 92.9713 466.828 93.658 463.289 93.658C450.117 93.658 441.467 83.9468 441.467 69.0366Z" fill="white"></path><path d="M550.647 102.879C566.179 102.879 576.992 91.7942 576.992 76.0993V36.1754H567.162V75.9031C567.162 86.8896 560.871 93.658 550.647 93.658C540.424 93.658 534.133 86.8896 534.133 75.9031V36.1754H524.303V76.0993C524.303 91.7942 535.116 102.879 550.647 102.879Z" fill="white"></path><path d="M609.849 101.898H619.679V36.1754H609.849V101.898Z" fill="white"></path><path d="M734.632 101.898H774.684V92.6771H744.462V73.5489H769.179V64.5243H744.462V45.3962H774.291V36.1754H734.632V101.898Z" fill="white"></path><path d="M804.185 101.898H827.974C848.519 101.898 860.806 87.5762 860.806 68.8404C860.806 50.1046 848.519 36.1754 827.974 36.1754H804.185V101.898ZM814.015 92.6771V45.3962H827.974C842.129 45.3962 850.779 54.9112 850.779 68.8404C850.779 82.7696 842.129 92.6771 827.974 92.6771H814.015Z" fill="white"></path><path d="M356.425 202.633H396.477V193.413H366.255V174.285H390.972V165.26H366.255V146.132H396.084V136.911H356.425V202.633Z" fill="white"></path><path d="M496.892 202.633H506.722V146.132H527.464V136.911H476.151V146.132H496.892V202.633Z" fill="white"></path><path d="M550.763 202.633H560.593V173.598H592.934V202.633H602.764V136.911H592.934V164.377H560.593V136.911H550.763V202.633Z" fill="white"></path><path d="M628.211 202.633H668.263V193.413H638.041V174.285H662.758V165.26H638.041V146.132H667.87V136.911H628.211V202.633Z" fill="white"></path><path d="M708.73 202.633H718.56V146.132H739.302V136.911H687.989V146.132H708.73V202.633Z" fill="white"></path><path d="M763.693 202.633H773.523V136.911H763.693V202.633Z" fill="white"></path><path fill-rule="evenodd" clip-rule="evenodd" d="M430.246 69.0366C430.246 48.7296 443.984 34 463.289 34C482.595 34 496.333 48.7296 496.333 69.0366C496.333 78.0323 493.705 85.9315 488.96 91.9206V92.5227L501.53 106.902L492.68 114.875L479.755 100.149H479.322C474.582 102.706 469.169 104.073 463.289 104.073C443.984 104.073 430.246 89.3436 430.246 69.0366ZM463.289 36.3889C445.437 36.3889 432.634 49.9102 432.634 69.0366C432.634 88.1631 445.437 101.684 463.289 101.684C468.896 101.684 474.005 100.358 478.441 97.9092L478.71 97.7605H480.836L492.879 111.482L498.184 106.703L486.572 93.42V91.0746L486.841 90.745C491.363 85.198 493.945 77.7255 493.945 69.0366C493.945 49.9102 481.141 36.3889 463.289 36.3889ZM523.109 34.9809H535.327V75.9031C535.327 81.1726 536.833 85.2937 539.43 88.0868C542.018 90.8697 545.809 92.4635 550.647 92.4635C555.486 92.4635 559.276 90.8697 561.864 88.0868C564.462 85.2937 565.968 81.1726 565.968 75.9031V34.9809H578.186V76.0993C578.186 84.2269 575.382 91.2327 570.496 96.2114C565.608 101.192 558.706 104.073 550.647 104.073C542.588 104.073 535.686 101.192 530.799 96.2114C525.913 91.2327 523.109 84.2269 523.109 76.0993V34.9809ZM525.497 37.3699V76.0993C525.497 83.6666 528.099 90.0506 532.503 94.5378C536.904 99.0232 543.175 101.684 550.647 101.684C558.12 101.684 564.39 99.0232 568.792 94.5378C573.195 90.0506 575.798 83.6666 575.798 76.0993V37.3699H568.356V75.9031C568.356 81.6201 566.716 86.3764 563.612 89.7141C560.499 93.062 556.032 94.8525 550.647 94.8525C545.262 94.8525 540.796 93.062 537.682 89.7141C534.578 86.3764 532.939 81.6201 532.939 75.9031V37.3699H525.497ZM608.655 34.9809H620.873V103.092H608.655V34.9809ZM611.043 37.3699V100.703H618.485V37.3699H611.043ZM733.438 34.9809H775.485V46.5906H745.656V63.3299H770.373V74.7434H745.656V91.4826H775.878V103.092H733.438V34.9809ZM735.826 37.3699V100.703H773.49V93.8715H743.268V72.3544H767.985V65.7188H743.268V44.2017H773.097V37.3699H735.826ZM802.991 34.9809H827.974C838.527 34.9809 847.059 38.5653 852.952 44.6509C858.839 50.7301 862 59.2101 862 68.8404C862 78.4695 858.84 87.0435 852.959 93.219C847.07 99.4029 838.537 103.092 827.974 103.092H802.991V34.9809ZM805.379 37.3699V100.703H827.974C837.956 100.703 845.839 97.2319 851.23 91.5711C856.629 85.9018 859.612 77.9472 859.612 68.8404C859.612 59.735 856.63 51.8825 851.237 46.3131C845.85 40.7501 837.966 37.3699 827.974 37.3699H805.379ZM448.331 51.9277C444.756 55.956 442.66 61.808 442.66 69.0366C442.66 76.2652 444.756 82.1172 448.331 86.1455C451.894 90.1601 457.014 92.4635 463.289 92.4635C466.374 92.4635 469.127 91.9179 471.63 90.9064V90.8908L457.378 75.5729L466.352 67.7213L480.422 82.8504H480.597C482.714 79.1322 483.918 74.4565 483.918 69.0366C483.918 61.808 481.823 55.956 478.247 51.9277C474.684 47.9132 469.564 45.6097 463.289 45.6097C457.014 45.6097 451.894 47.9132 448.331 51.9277ZM446.546 50.3415C450.601 45.7729 456.392 43.2208 463.289 43.2208C470.186 43.2208 475.978 45.7729 480.033 50.3415C484.076 54.8963 486.306 61.355 486.306 69.0366C486.306 75.1065 484.886 80.4303 482.297 84.6679L481.948 85.2393H479.382L466.181 71.0445L460.804 75.7489L474.018 89.951V92.4705L473.312 92.7866C470.301 94.1333 466.989 94.8525 463.289 94.8525C456.392 94.8525 450.601 92.3003 446.546 87.7317C442.503 83.1769 440.273 76.7182 440.273 69.0366C440.273 61.3551 442.503 54.8963 446.546 50.3415ZM812.821 44.2017H827.974C835.329 44.2017 841.359 46.6809 845.548 51.07C849.731 55.452 851.973 61.6287 851.973 68.8404C851.973 76.0507 849.732 82.3195 845.558 86.7969C841.375 91.2842 835.344 93.8715 827.974 93.8715H812.821V44.2017ZM815.209 46.5906V91.4826H827.974C834.759 91.4826 840.131 89.1162 843.812 85.1675C847.502 81.2089 849.586 75.5593 849.586 68.8404C849.586 62.1229 847.503 56.5774 843.821 52.7197C840.146 48.8689 834.774 46.5906 827.974 46.5906H815.209ZM355.231 135.717H397.278V147.326H367.449V164.066H392.166V175.479H367.449V192.218H397.671V203.828H355.231V135.717ZM357.619 138.106V201.439H395.283V194.607H365.061V173.09H389.778V166.454H365.061V144.937H394.89V138.106H357.619ZM474.957 135.717H528.658V147.326H507.916V203.828H495.698V147.326H474.957V135.717ZM477.345 138.106V144.937H498.086V201.439H505.528V144.937H526.27V138.106H477.345ZM549.569 135.717H561.787V163.183H591.74V135.717H603.958V203.828H591.74V174.792H561.787V203.828H549.569V135.717ZM551.957 138.106V201.439H559.399V172.403H594.128V201.439H601.57V138.106H594.128V165.572H559.399V138.106H551.957ZM627.017 135.717H669.064V147.326H639.235V164.066H663.952V175.479H639.235V192.218H669.457V203.828H627.017V135.717ZM629.405 138.106V201.439H667.069V194.607H636.847V173.09H661.564V166.454H636.847V144.937H666.676V138.106H629.405ZM686.795 135.717H740.496V147.326H719.754V203.828H707.536V147.326H686.795V135.717ZM689.183 138.106V144.937H709.924V201.439H717.366V144.937H738.108V138.106H689.183ZM762.499 135.717H774.717V203.828H762.499V135.717ZM764.887 138.106V201.439H772.329V138.106H764.887Z" fill="white"></path><path d="M412.697 55.4526C409.545 42.5524 399.516 35.1945 384.998 35.1945C376.115 35.1945 368.664 38.2523 362.551 44.2724C356.438 50.2925 353.382 58.7016 353.382 69.404C353.382 80.1065 356.438 88.5155 362.551 94.5356C368.664 100.556 376.115 103.614 384.998 103.614C399.516 103.614 409.545 96.2557 412.697 83.3554L401.522 80.4887C398.561 88.2288 393.116 92.1467 384.998 92.1467C379.553 92.1467 374.968 90.2355 371.339 86.3177C367.805 82.3998 365.99 76.7619 365.99 69.404C365.99 62.0461 367.805 56.4082 371.339 52.4904C374.968 48.5725 379.553 46.6614 384.998 46.6614C393.116 46.6614 398.561 50.5792 401.522 58.3194L412.697 55.4526Z" fill="white"></path><path d="M859.231 154.593C856.079 141.693 846.05 134.335 831.532 134.335C822.649 134.335 815.199 137.393 809.086 143.413C802.973 149.433 799.916 157.842 799.916 168.545C799.916 179.247 802.973 187.656 809.086 193.676C815.199 199.697 822.649 202.754 831.532 202.754C846.05 202.754 856.079 195.396 859.231 182.496L848.056 179.629C845.095 187.37 839.651 191.287 831.532 191.287C826.087 191.287 821.503 189.376 817.873 185.459C814.339 181.541 812.524 175.903 812.524 168.545C812.524 161.187 814.339 155.549 817.873 151.631C821.503 147.713 826.087 145.802 831.532 145.802C839.651 145.802 845.095 149.72 848.056 157.46L859.231 154.593Z" fill="white"></path><path d="M694.42 102.945H707.41L689.739 75.0419C699.195 72.7485 705.022 65.3906 705.022 55.7393C705.022 44.2724 696.903 35.1945 683.817 35.1945H653.061V102.945H664.619V76.1886H677.8L694.42 102.945ZM664.619 66.0595V45.3236H681.716C688.784 45.3236 693.369 49.4325 693.369 55.7393C693.369 61.9505 688.784 66.0595 681.716 66.0595H664.619Z" fill="white"></path><path d="M324.489 102.945H337.001L310.639 35.1945H297.362L271 102.945H283.13L289.434 85.9355H318.089L324.489 102.945ZM303.762 47.6169L314.077 75.3286H293.446L303.762 47.6169Z" fill="white"></path><path d="M324.489 204.474H337.001L310.639 135.53H297.362L271 204.474H283.13L289.434 187.465H318.089L324.489 204.474ZM303.762 149.147L314.077 176.858H293.446L303.762 149.147Z" fill="white"></path><path d="M422.536 182.066L414.131 187.895C415.595 190.953 417.569 193.788 420.053 196.4C422.536 199.012 425.433 201.114 428.745 202.707C432.119 204.236 435.781 205 439.729 205C442.594 205 445.332 204.522 447.943 203.567C450.618 202.675 453.006 201.401 455.107 199.744C457.208 198.024 458.864 195.922 460.074 193.438C461.283 190.953 461.888 188.15 461.888 185.028C461.888 182.098 461.379 179.55 460.36 177.384C459.405 175.218 458.1 173.339 456.444 171.746C454.788 170.09 452.942 168.72 450.904 167.637C448.93 166.554 446.956 165.662 444.982 164.961C441.416 163.687 438.519 162.445 436.29 161.235C434.062 160.024 432.406 158.75 431.324 157.412C430.305 156.011 429.795 154.45 429.795 152.73C429.795 150.819 430.528 149.163 431.992 147.761C433.457 146.296 435.749 145.563 438.869 145.563C441.098 145.563 443.04 146.009 444.696 146.901C446.415 147.729 447.911 148.876 449.185 150.341C450.458 151.743 451.509 153.272 452.337 154.928L461.506 149.768C460.36 147.411 458.768 145.149 456.731 142.983C454.757 140.817 452.305 139.034 449.376 137.632C446.447 136.231 443.008 135.53 439.06 135.53C435.049 135.53 431.451 136.294 428.267 137.823C425.147 139.288 422.663 141.391 420.817 144.13C418.97 146.806 418.047 149.927 418.047 153.495C418.047 156.616 418.652 159.292 419.862 161.521C421.072 163.687 422.6 165.535 424.446 167.064C426.293 168.529 428.235 169.771 430.273 170.79C432.311 171.746 434.157 172.51 435.813 173.084C438.615 174.103 441.066 175.154 443.167 176.237C445.332 177.256 447.02 178.531 448.23 180.06C449.44 181.525 450.045 183.5 450.045 185.984C450.045 188.596 449.089 190.73 447.179 192.386C445.269 194.043 442.785 194.871 439.729 194.871C437.182 194.871 434.889 194.361 432.852 193.342C430.814 192.259 428.936 190.762 427.216 188.851C425.561 186.876 424.001 184.614 422.536 182.066Z" fill="white"></path><circle cx="117.5" cy="118" r="117.5" fill="#C1FD3A"></circle><path d="M69.8067 112.313C70.426 111.396 71.4602 110.846 72.5666 110.846H125.369C126.259 110.846 126.787 111.841 126.289 112.578L95.152 158.673C94.5327 159.59 93.4985 160.139 92.3921 160.139H39.5896C38.6999 160.139 38.1716 159.145 38.6697 158.408L69.8067 112.313Z" fill="black"></path><path d="M135.285 63H170.834C171.753 63 172.499 63.7456 172.499 64.6652V158.474C172.499 159.394 171.753 160.139 170.834 160.139H136.95C136.031 160.139 135.285 159.394 135.285 158.474V63Z" fill="black"></path><path d="M101.79 64.4669C102.41 63.5497 103.444 63 104.551 63H169.235C171.038 63 172.499 64.4613 172.499 66.2639V89.6439H86.8819C85.9923 89.6439 85.4641 88.6499 85.9618 87.9126L101.79 64.4669Z" fill="black"></path><path d="M135.306 89.644V91.8644L135.226 91.161C135.149 90.4803 134.662 89.9165 134 89.74L133.641 89.644H135.306Z" fill="black"></path></svg>