<?xml version="1.0" standalone="no"?>
<!DOCTYPE svg PUBLIC "-//W3C//DTD SVG 20010904//EN"
 "http://www.w3.org/TR/2001/REC-SVG-20010904/DTD/svg10.dtd">
<svg version="1.0" xmlns="http://www.w3.org/2000/svg"
 width="500.000000pt" height="150.000000pt" viewBox="0 0 500.000000 150.000000"
 preserveAspectRatio="xMidYMid meet">

<g transform="translate(0.000000,150.000000) scale(0.100000,-0.100000)"
fill="#000000" stroke="none">
<path d="M1231 1003 c-54 -27 -71 -76 -71 -211 0 -172 25 -213 135 -220 36 -2
85 -1 110 2 l45 7 0 110 0 109 -70 0 -70 0 0 -30 c0 -25 4 -30 26 -30 24 0 25
-2 22 -52 -3 -57 -14 -66 -63 -54 -33 8 -45 53 -45 165 0 119 12 146 60 146
31 0 36 -4 45 -32 8 -31 12 -33 52 -33 39 0 43 2 43 25 0 92 -122 146 -219 98z"/>
<path d="M1932 1009 c-64 -19 -92 -111 -53 -174 10 -16 38 -41 61 -55 66 -38
111 -85 104 -107 -8 -21 -33 -43 -50 -43 -21 0 -44 30 -44 56 0 22 -4 24 -44
24 -25 0 -48 -4 -51 -10 -10 -16 13 -86 36 -106 29 -26 144 -32 188 -9 59 30
77 119 37 181 -9 12 -47 41 -85 63 -71 42 -89 68 -70 103 6 11 21 18 40 18 25
0 30 -5 36 -30 5 -28 9 -30 49 -30 40 0 44 2 44 24 0 87 -85 127 -198 95z"/>
<path d="M2654 1004 c-57 -28 -69 -63 -69 -209 0 -105 3 -136 18 -162 26 -48
68 -66 143 -61 110 7 134 48 134 225 0 137 -14 177 -70 205 -43 22 -114 23
-156 2z m123 -84 c16 -31 17 -205 2 -249 -15 -42 -55 -53 -80 -22 -32 39 -37
229 -7 284 14 27 69 19 85 -13z"/>
<path d="M640 790 l0 -220 45 0 45 0 0 100 0 100 55 0 55 0 0 -99 0 -100 43 2
42 2 3 218 2 217 -45 0 -45 0 0 -85 0 -85 -55 0 -55 0 0 85 0 85 -45 0 -45 0
0 -220z"/>
<path d="M1002 793 l3 -218 45 0 45 0 3 218 2 217 -50 0 -50 0 2 -217z"/>
<path d="M1520 790 l0 -220 45 0 45 0 0 101 0 100 53 -3 52 -3 3 -98 3 -98 42
3 42 3 3 218 2 217 -47 0 -48 0 3 -85 3 -85 -55 0 -56 0 0 85 0 85 -45 0 -45
0 0 -220z"/>
<path d="M2192 793 l3 -218 40 0 40 0 3 160 3 160 58 -160 59 -160 58 0 59 0
3 218 2 217 -46 0 -45 0 3 -145 c2 -80 1 -145 -2 -145 -3 0 -29 65 -59 145
l-53 145 -64 0 -64 0 2 -217z"/>
<path d="M2942 793 l3 -218 100 0 c114 0 159 14 180 56 30 56 14 137 -31 158
l-23 10 29 30 c25 24 30 38 30 76 0 38 -5 52 -29 76 -29 29 -31 29 -145 29
l-116 0 2 -217z m176 141 c23 -16 29 -57 13 -83 -5 -8 -27 -15 -53 -15 l-43
-1 -3 44 c-2 24 -1 50 2 57 7 19 56 18 84 -2z m19 -190 c35 -48 -3 -107 -65
-102 -37 3 -37 3 -40 52 -5 72 1 80 50 73 23 -3 48 -14 55 -23z"/>
<path d="M3302 793 l3 -218 43 -3 42 -3 0 220 0 221 -45 0 -45 0 2 -217z"/>
<path d="M3470 790 l0 -220 120 0 120 0 0 35 0 35 -75 0 -75 0 0 65 0 64 68 3
67 3 0 30 0 30 -68 3 -67 3 0 49 0 50 75 0 75 0 0 35 0 35 -120 0 -120 0 0
-220z"/>
<path d="M3740 975 l0 -35 55 0 55 0 2 -182 3 -183 40 0 40 0 3 183 2 182 58
0 57 0 43 -108 c36 -93 42 -118 42 -183 l0 -76 45 -1 45 -2 0 77 c0 73 4 87
60 217 33 77 60 141 60 143 0 2 -21 3 -46 1 l-46 -3 -31 -82 c-17 -46 -34 -83
-37 -83 -3 0 -18 38 -34 85 l-29 85 -193 0 -194 0 0 -35z"/>
<path d="M640 410 l0 -30 1795 0 1795 0 0 30 0 30 -1795 0 -1795 0 0 -30z"/>
</g>
</svg>
