<svg xmlns="http://www.w3.org/2000/svg" width="235" height="236" viewBox="0 0 235 236" fill="none"><circle cx="117.5" cy="118" r="117.5" fill="#C1FD3A"></circle><path d="M69.8067 112.313C70.426 111.396 71.4602 110.846 72.5666 110.846H125.369C126.259 110.846 126.787 111.841 126.289 112.578L95.152 158.673C94.5327 159.59 93.4985 160.139 92.3921 160.139H39.5896C38.6999 160.139 38.1716 159.145 38.6697 158.408L69.8067 112.313Z" fill="black"></path><path d="M135.285 63H170.834C171.753 63 172.499 63.7456 172.499 64.6652V158.474C172.499 159.394 171.753 160.139 170.834 160.139H136.95C136.031 160.139 135.285 159.394 135.285 158.474V63Z" fill="black"></path><path d="M101.79 64.4669C102.41 63.5497 103.444 63 104.551 63H169.235C171.038 63 172.499 64.4613 172.499 66.2639V89.6439H86.8819C85.9923 89.6439 85.4641 88.6499 85.9618 87.9126L101.79 64.4669Z" fill="black"></path><path d="M135.306 89.644V91.8644L135.226 91.161C135.149 90.4803 134.662 89.9165 134 89.74L133.641 89.644H135.306Z" fill="black"></path></svg>