<svg xmlns="http://www.w3.org/2000/svg" width="263" height="264" viewBox="0 0 263 264" fill="none"><path d="M179.723 47.7604L182.345 60.0171C183.431 65.0872 187.823 68.7804 193.002 68.9608L205.527 69.4156L203.8 81.8315C203.086 86.9637 205.943 91.9264 210.755 93.8739L222.368 98.5908L216.496 109.668C214.066 114.248 215.064 119.892 218.911 123.364L228.228 131.768L218.917 140.168C215.072 143.642 214.074 149.283 216.504 153.868L222.37 164.936L210.751 169.653C205.948 171.603 203.082 176.566 203.796 181.701L205.52 194.121L193.002 194.576C187.816 194.764 183.43 198.448 182.344 203.515L179.728 215.772L167.795 211.916C162.864 210.32 157.478 212.278 154.726 216.672L148.069 227.297L138.178 219.598C134.085 216.404 128.359 216.412 124.271 219.596L114.382 227.299L107.726 216.68C104.98 212.285 99.5787 210.324 94.6517 211.922L82.7234 215.769L80.102 203.513C79.0156 198.442 74.6305 194.753 69.4518 194.573L56.927 194.118L58.6537 181.702C59.3673 176.57 56.5039 171.603 51.692 169.656L40.0855 164.943L45.9511 153.862C48.3808 149.282 47.3832 143.638 43.5356 140.165L34.2255 131.766L43.5302 123.361C47.3747 119.887 48.3724 114.247 45.9424 109.661L40.0772 98.5932L51.6955 93.8765C56.5058 91.9308 59.3713 86.9675 58.6512 81.8288L56.9228 69.4157L69.4406 68.9611C74.627 68.7726 79.0129 65.0885 80.0992 60.022L82.7255 47.7616L94.6516 51.6136C99.5854 53.2208 104.969 51.2515 107.721 46.8572L114.385 36.237L125.438 44.8497C128.835 47.5017 133.612 47.5059 137.013 44.8491L148.072 36.2346L154.728 46.854C157.474 51.2487 162.868 53.2058 167.795 51.6075L179.723 47.7604V47.7604Z" fill="#C1FD3A"></path><path d="M122.637 128L122.637 113.111L119.214 113.111L114.447 124.472L109.617 113.111L106.257 113.111L106.257 128L108.714 128L108.714 117.08L113.313 128L115.497 128L120.138 117.038L120.138 128L122.637 128ZM127.891 120.545C127.891 116.954 130.369 115.169 132.868 115.169C135.388 115.169 137.866 116.954 137.866 120.545C137.866 124.136 135.388 125.921 132.868 125.921C130.369 125.921 127.891 124.136 127.891 120.545ZM125.308 120.545C125.308 125.438 128.962 128.315 132.868 128.315C136.774 128.315 140.449 125.438 140.449 120.545C140.449 115.673 136.774 112.796 132.868 112.796C128.962 112.796 125.308 115.673 125.308 120.545ZM152.834 116.597C152.498 114.938 151.133 112.796 147.626 112.796C144.854 112.796 142.565 114.854 142.565 117.353C142.565 119.579 144.077 121.07 146.345 121.532L148.445 121.973C149.726 122.246 150.44 123.023 150.44 123.989C150.44 125.144 149.516 126.047 147.731 126.047C145.589 126.047 144.476 124.619 144.329 123.065L141.977 123.737C142.208 125.879 143.951 128.315 147.731 128.315C151.133 128.315 153.002 126.11 153.002 123.8C153.002 121.7 151.595 120.041 148.97 119.516L146.828 119.075C145.673 118.823 145.085 118.109 145.085 117.164C145.085 116.03 146.135 115.022 147.647 115.022C149.642 115.022 150.419 116.387 150.566 117.311L152.834 116.597ZM166.246 115.484L166.246 113.111L154.045 113.111L154.045 115.484L158.875 115.484L158.875 128L161.395 128L161.395 115.484L166.246 115.484ZM91.6219 145.957L91.6219 141.337L94.2469 141.337C95.8429 141.337 96.8089 142.24 96.8089 143.668C96.8089 145.075 95.8429 145.957 94.2469 145.957L91.6219 145.957ZM94.6249 148.183C97.4809 148.183 99.3709 146.272 99.3709 143.647C99.3709 141.043 97.4809 139.111 94.6249 139.111L89.1019 139.111L89.1019 154L91.6219 154L91.6219 148.183L94.6249 148.183ZM103.415 146.545C103.415 142.954 105.893 141.169 108.392 141.169C110.912 141.169 113.39 142.954 113.39 146.545C113.39 150.136 110.912 151.921 108.392 151.921C105.893 151.921 103.415 150.136 103.415 146.545ZM100.832 146.545C100.832 151.438 104.486 154.315 108.392 154.315C112.298 154.315 115.973 151.438 115.973 146.545C115.973 141.673 112.298 138.796 108.392 138.796C104.486 138.796 100.832 141.673 100.832 146.545ZM121.153 145.957L121.153 141.337L123.778 141.337C125.374 141.337 126.34 142.24 126.34 143.668C126.34 145.075 125.374 145.957 123.778 145.957L121.153 145.957ZM124.156 148.183C127.012 148.183 128.902 146.272 128.902 143.647C128.902 141.043 127.012 139.111 124.156 139.111L118.633 139.111L118.633 154L121.153 154L121.153 148.183L124.156 148.183ZM136.601 154.315C139.73 154.315 142.166 152.404 142.166 148.813L142.166 139.111L139.646 139.111L139.646 148.666C139.646 150.766 138.512 151.921 136.601 151.921C134.711 151.921 133.556 150.766 133.556 148.666L133.556 139.111L131.057 139.111L131.057 148.813C131.057 152.404 133.493 154.315 136.601 154.315ZM154.905 154L154.905 151.606L148.08 151.606L148.08 139.111L145.56 139.111L145.56 154L154.905 154ZM167.66 154L170.411 154L164.615 139.111L161.696 139.111L155.9 154L158.567 154L159.953 150.262L166.253 150.262L167.66 154ZM163.103 141.841L165.371 147.931L160.835 147.931L163.103 141.841ZM179.923 154L182.779 154L179.419 147.868C181.498 147.364 182.779 145.747 182.779 143.626C182.779 141.106 180.994 139.111 178.117 139.111L172.405 139.111L172.405 154L174.946 154L174.946 148.12L176.794 148.12L179.923 154ZM174.946 145.894L174.946 141.337L177.655 141.337C179.209 141.337 180.217 142.24 180.217 143.626C180.217 144.991 179.209 145.894 177.655 145.894L174.946 145.894Z" fill="black"></path></svg>