<svg xmlns="http://www.w3.org/2000/svg" width="231" height="234" viewBox="0 0 231 234" fill="none"><path d="M115.216 0L125.346 11.2223C129.538 15.8633 136.354 17.0723 141.872 14.1375L155.23 7.059L160.914 21.0698C163.264 26.8612 169.24 30.3225 175.441 29.4547L190.417 27.378L190.963 42.4905C191.188 48.7402 195.634 54.0345 201.747 55.341L216.547 58.5L211.887 72.891C209.966 78.8385 212.326 85.332 217.63 88.6568L230.431 96.681L221.14 108.615C217.298 113.549 217.298 120.461 221.14 125.395L230.431 137.329L217.63 145.353C212.326 148.678 209.966 155.171 211.887 161.119L216.547 175.5L201.757 178.669C195.643 179.975 191.197 185.269 190.973 191.519L190.427 206.632L175.451 204.555C169.25 203.687 163.273 207.149 160.924 212.94L155.239 226.951L141.882 219.872C136.363 216.938 129.538 218.147 125.356 222.788L115.216 234L105.085 222.778C100.893 218.137 94.0875 216.928 88.569 219.862L75.2115 226.941L69.5272 212.93C67.1775 207.139 61.191 203.678 54.99 204.545L40.0237 206.622L39.468 191.51C39.2437 185.26 34.7977 179.965 28.6845 178.659L13.8937 175.5L18.5445 161.109C20.4652 155.162 18.1057 148.668 12.8017 145.343L0 137.319L9.29175 125.385C13.143 120.451 13.143 113.539 9.29175 108.605L0 96.681L12.8017 88.6568C18.1057 85.332 20.4652 78.8385 18.5445 72.891L13.8937 58.5L28.6747 55.3313C34.7977 54.0345 39.234 48.7305 39.4582 42.4807L40.014 27.3682L56.7547 29.6985C61.9027 30.42 66.8947 27.5437 68.8447 22.7175L75.2017 7.04925L88.5592 14.1278C94.0777 17.0625 100.893 15.8535 105.076 11.2125L115.216 0V0Z" fill="#C1FD3A"></path><path d="M140.008 105.386L140.286 103.792L155.919 106.523L150 98.0984L151.338 97.1589L158.854 107.856L148.156 115.372L147.217 114.035L155.641 108.116L140.008 105.386Z" fill="black" stroke="black" stroke-width="0.5"></path><path d="M81.8852 121.776C80.715 120.667 78.4786 119.745 75.7457 121.666C73.5856 123.183 72.9287 126.04 74.2969 127.988C75.5157 129.722 77.5103 130.056 79.5306 129.175L81.4085 128.368C82.5563 127.88 83.5381 128.094 84.067 128.847C84.6994 129.747 84.4738 130.957 83.0828 131.934C81.4136 133.107 79.7644 132.603 78.799 131.473L77.3341 133.284C78.6869 134.827 81.379 135.771 84.3246 133.701C86.9756 131.839 87.2247 129.097 85.96 127.297C84.8102 125.661 82.8054 125.138 80.4724 126.166L78.5618 126.995C77.5237 127.431 76.6746 127.197 76.1572 126.461C75.5363 125.577 75.8026 124.217 76.9808 123.389C78.5355 122.296 79.8883 122.935 80.5088 123.574L81.8852 121.776Z" fill="black"></path><path d="M97.4667 124.101L96.179 122.268L90.9751 125.924L88.8134 122.848L93.5264 119.536L92.2731 117.753L87.5601 121.064L85.3985 117.988L90.6024 114.331L89.3146 112.498L82.147 117.534L90.2991 129.137L97.4667 124.101Z" fill="black"></path><path d="M106.991 117.409L105.704 115.576L100.5 119.232L98.3381 116.156L103.051 112.844L101.798 111.06L97.0848 114.372L94.9231 111.295L100.127 107.639L98.8392 105.806L91.6716 110.842L99.8237 122.445L106.991 117.409Z" fill="black"></path><path d="M110.635 106.171C108.669 103.373 109.622 100.625 111.57 99.2568C113.533 97.8771 116.442 97.9113 118.408 100.71C120.374 103.508 119.42 106.256 117.457 107.635C115.509 109.004 112.601 108.969 110.635 106.171ZM108.622 107.585C111.301 111.398 115.724 111.64 118.767 109.501C121.811 107.362 123.1 103.108 120.421 99.2953C117.753 95.4988 113.314 95.269 110.27 97.4076C107.227 99.5463 105.954 103.789 108.622 107.585Z" fill="black"></path><path d="M130.938 100.95C133.376 99.2368 134.228 96.4139 132.262 93.6156L126.95 86.0552L124.986 87.4349L130.217 94.8808C131.367 96.5172 131.116 98.0381 129.627 99.0845C128.154 100.119 126.622 99.8516 125.472 98.2152L120.24 90.7694L118.293 92.1376L123.605 99.698C125.571 102.496 128.516 102.652 130.938 100.95Z" fill="black"></path><path d="M143.605 91.683L145.83 90.1193L139.855 87.1805C141.199 85.6495 141.312 83.688 140.15 82.0352C138.771 80.0715 136.287 79.4942 134.045 81.0694L129.594 84.1969L137.746 95.7993L139.727 94.408L136.507 89.826L137.947 88.8142L143.605 91.683ZM135.288 88.0914L132.793 84.5403L134.904 83.057C136.115 82.2062 137.395 82.3579 138.154 83.438C138.901 84.5017 138.61 85.7572 137.399 86.6081L135.288 88.0914Z" fill="black"></path><path d="M102.311 144.236L93.5429 137.637L91.4974 139.074L94.7369 149.46L86.4571 142.616L84.3952 144.065L95.8366 153.356L97.8494 151.942L94.5011 141.193L103.479 147.986L105.508 146.561L100.612 132.67L98.5832 134.096L102.311 144.236Z" fill="black"></path><path d="M107.221 136.679C105.255 133.881 106.209 131.133 108.156 129.765C110.12 128.385 113.028 128.419 114.995 131.218C116.961 134.016 116.007 136.764 114.043 138.143C112.096 139.512 109.188 139.478 107.221 136.679ZM105.209 138.093C107.888 141.906 112.31 142.148 115.354 140.009C118.398 137.87 119.686 133.616 117.007 129.803C114.34 126.007 109.901 125.777 106.857 127.916C103.813 130.054 102.541 134.297 105.209 138.093Z" fill="black"></path><path d="M129.021 130.04L131.246 128.476L125.271 125.537C126.615 124.006 126.728 122.045 125.566 120.392C124.187 118.428 121.703 117.851 119.461 119.426L115.01 122.554L123.162 134.156L125.142 132.765L121.923 128.183L123.363 127.171L129.021 130.04ZM120.704 126.448L118.209 122.897L120.32 121.414C121.531 120.563 122.811 120.715 123.57 121.795C124.317 122.858 124.026 124.114 122.815 124.965L120.704 126.448Z" fill="black"></path><path d="M140.461 122.002L142.932 120.266L133.633 117.12L134.731 108.698L132.145 110.514L131.063 119.585L127.154 114.021L125.19 115.401L133.342 127.003L135.306 125.624L132.96 122.285L133.314 119.519L140.461 122.002Z" fill="black"></path></svg>