<svg xmlns="http://www.w3.org/2000/svg" width="862" height="236" viewBox="0 0 862 236" fill="none"><g clip-path="url(#clip0_768_70)"><path d="M492.78 113.179L499.858 106.802L487.767 92.9714V91.5C492.485 85.7125 495.14 77.9632 495.14 69.0367C495.14 49.32 481.869 35.1946 463.29 35.1946C444.711 35.1946 431.441 49.32 431.441 69.0367C431.441 88.7534 444.711 102.879 463.29 102.879C469.09 102.879 474.398 101.505 479.018 98.9551H480.296L492.78 113.179ZM441.468 69.0367C441.468 54.1265 450.118 44.4153 463.29 44.4153C476.462 44.4153 485.113 54.1265 485.113 69.0367C485.113 74.9223 483.737 80.0231 481.279 84.045H479.903L466.268 69.383L459.092 75.661L472.825 90.421V91.6962C469.975 92.9714 466.829 93.6581 463.29 93.6581C450.118 93.6581 441.468 83.9469 441.468 69.0367Z" fill="black"></path><path d="M550.649 102.879C566.181 102.879 576.994 91.7941 576.994 76.0992V36.1753H567.164V75.903C567.164 86.8895 560.873 93.6579 550.649 93.6579C540.426 93.6579 534.135 86.8895 534.135 75.903V36.1753H524.305V76.0992C524.305 91.7941 535.118 102.879 550.649 102.879Z" fill="black"></path><path d="M609.848 101.898H619.678V36.1753H609.848V101.898Z" fill="black"></path><path d="M734.633 101.898H774.685V92.677H744.463V73.5488H769.18V64.5242H744.463V45.3961H774.292V36.1753H734.633V101.898Z" fill="black"></path><path d="M804.184 101.898H827.973C848.518 101.898 860.805 87.5761 860.805 68.8403C860.805 50.1045 848.518 36.1753 827.973 36.1753H804.184V101.898ZM814.014 92.677V45.3961H827.973C842.128 45.3961 850.778 54.9111 850.778 68.8403C850.778 82.7695 842.128 92.677 827.973 92.677H814.014Z" fill="black"></path><path d="M356.426 202.633H396.478V193.413H366.256V174.285H390.973V165.26H366.256V146.132H396.085V136.911H356.426V202.633Z" fill="black"></path><path d="M496.893 202.633H506.723V146.132H527.465V136.911H476.152V146.132H496.893V202.633Z" fill="black"></path><path d="M550.762 202.633H560.592V173.598H592.933V202.633H602.763V136.911H592.933V164.377H560.592V136.911H550.762V202.633Z" fill="black"></path><path d="M628.211 202.633H668.263V193.413H638.041V174.285H662.758V165.26H638.041V146.132H667.87V136.911H628.211V202.633Z" fill="black"></path><path d="M708.729 202.633H718.559V146.132H739.301V136.911H687.988V146.132H708.729V202.633Z" fill="black"></path><path d="M763.691 202.633H773.521V136.911H763.691V202.633Z" fill="black"></path><path fill-rule="evenodd" clip-rule="evenodd" d="M430.245 69.0366C430.245 48.7296 443.983 34 463.288 34C482.594 34 496.332 48.7296 496.332 69.0366C496.332 78.0323 493.704 85.9315 488.959 91.9206V92.5227L501.529 106.902L492.679 114.875L479.754 100.149H479.321C474.581 102.706 469.168 104.073 463.288 104.073C443.983 104.073 430.245 89.3436 430.245 69.0366ZM463.288 36.3889C445.436 36.3889 432.633 49.9102 432.633 69.0366C432.633 88.1631 445.436 101.684 463.288 101.684C468.895 101.684 474.004 100.358 478.44 97.9092L478.709 97.7605H480.835L492.878 111.482L498.183 106.703L486.571 93.42V91.0746L486.84 90.745C491.362 85.198 493.944 77.7255 493.944 69.0366C493.944 49.9102 481.14 36.3889 463.288 36.3889ZM523.108 34.9809H535.327V75.9031C535.327 81.1726 536.832 85.2937 539.429 88.0868C542.017 90.8697 545.808 92.4635 550.646 92.4635C555.485 92.4635 559.275 90.8697 561.863 88.0868C564.461 85.2937 565.967 81.1726 565.967 75.9031V34.9809H578.185V76.0993C578.185 84.2269 575.381 91.2327 570.495 96.2114C565.607 101.192 558.705 104.073 550.646 104.073C542.587 104.073 535.685 101.192 530.798 96.2114C525.912 91.2327 523.108 84.2269 523.108 76.0993V34.9809ZM525.496 37.3699V76.0993C525.496 83.6666 528.098 90.0506 532.502 94.5378C536.903 99.0232 543.174 101.684 550.646 101.684C558.119 101.684 564.389 99.0232 568.791 94.5378C573.194 90.0506 575.797 83.6666 575.797 76.0993V37.3699H568.355V75.9031C568.355 81.6201 566.715 86.3764 563.611 89.7141C560.498 93.062 556.031 94.8525 550.646 94.8525C545.261 94.8525 540.795 93.062 537.681 89.7141C534.577 86.3764 532.939 81.6201 532.939 75.9031V37.3699H525.496ZM608.655 34.9809H620.872V103.092H608.655V34.9809ZM611.043 37.3699V100.703H618.484V37.3699H611.043ZM733.437 34.9809H775.484V46.5906H745.655V63.3299H770.372V74.7434H745.655V91.4826H775.877V103.092H733.437V34.9809ZM735.825 37.3699V100.703H773.489V93.8715H743.267V72.3544H767.984V65.7188H743.267V44.2017H773.096V37.3699H735.825ZM802.991 34.9809H827.973C838.526 34.9809 847.059 38.5653 852.952 44.6509C858.839 50.7301 861.999 59.2101 861.999 68.8404C861.999 78.4695 858.839 87.0435 852.958 93.219C847.069 99.4029 838.536 103.092 827.973 103.092H802.991V34.9809ZM805.379 37.3699V100.703H827.973C837.955 100.703 845.838 97.2319 851.229 91.5711C856.628 85.9018 859.611 77.9472 859.611 68.8404C859.611 59.735 856.629 51.8825 851.236 46.3131C845.849 40.7501 837.965 37.3699 827.973 37.3699H805.379ZM448.33 51.9277C444.755 55.956 442.659 61.808 442.659 69.0366C442.659 76.2652 444.755 82.1172 448.33 86.1455C451.893 90.1601 457.013 92.4635 463.288 92.4635C466.373 92.4635 469.126 91.9179 471.629 90.9064V90.8908L457.377 75.5728L466.351 67.7213L480.421 82.8504H480.596C482.713 79.1322 483.917 74.4565 483.917 69.0366C483.917 61.808 481.822 55.956 478.246 51.9277C474.683 47.9132 469.563 45.6097 463.288 45.6097C457.013 45.6097 451.893 47.9132 448.33 51.9277ZM446.545 50.3415C450.6 45.7729 456.391 43.2208 463.288 43.2208C470.185 43.2208 475.977 45.7729 480.032 50.3415C484.075 54.8963 486.305 61.355 486.305 69.0366C486.305 75.1065 484.885 80.4303 482.296 84.6679L481.947 85.2393H479.381L466.18 71.0445L460.803 75.7489L474.017 89.951V92.4705L473.311 92.7866C470.3 94.1333 466.988 94.8525 463.288 94.8525C456.391 94.8525 450.6 92.3003 446.545 87.7317C442.502 83.1769 440.272 76.7182 440.272 69.0366C440.272 61.3551 442.502 54.8963 446.545 50.3415ZM812.82 44.2017H827.973C835.328 44.2017 841.358 46.6809 845.547 51.07C849.73 55.452 851.973 61.6287 851.973 68.8404C851.973 76.0507 849.731 82.3195 845.557 86.7969C841.374 91.2842 835.343 93.8715 827.973 93.8715H812.82V44.2017ZM815.208 46.5906V91.4826H827.973C834.758 91.4826 840.13 89.1162 843.811 85.1675C847.501 81.2089 849.585 75.5593 849.585 68.8404C849.585 62.1229 847.502 56.5774 843.82 52.7197C840.145 48.8689 834.773 46.5906 827.973 46.5906H815.208ZM355.23 135.717H397.277V147.326H367.448V164.066H392.165V175.479H367.448V192.218H397.67V203.828H355.23V135.717ZM357.618 138.106V201.439H395.282V194.607H365.06V173.09H389.777V166.454H365.06V144.937H394.889V138.106H357.618ZM474.956 135.717H528.658V147.326H507.915V203.828H495.697V147.326H474.956V135.717ZM477.344 138.106V144.937H498.085V201.439H505.527V144.937H526.27V138.106H477.344ZM549.568 135.717H561.786V163.183H591.739V135.717H603.957V203.828H591.739V174.792H561.786V203.828H549.568V135.717ZM551.956 138.106V201.439H559.398V172.403H594.127V201.439H601.569V138.106H594.127V165.572H559.398V138.106H551.956ZM627.017 135.717H669.064V147.326H639.234V164.066H663.952V175.479H639.234V192.218H669.456V203.828H627.017V135.717ZM629.405 138.106V201.439H667.068V194.607H636.846V173.09H661.564V166.454H636.846V144.937H666.676V138.106H629.405ZM686.794 135.717H740.495V147.326H719.754V203.828H707.535V147.326H686.794V135.717ZM689.182 138.106V144.937H709.923V201.439H717.366V144.937H738.107V138.106H689.182ZM762.499 135.717H774.716V203.828H762.499V135.717ZM764.887 138.106V201.439H772.328V138.106H764.887Z" fill="black"></path><path d="M412.698 55.4527C409.546 42.5525 399.517 35.1946 384.999 35.1946C376.116 35.1946 368.665 38.2524 362.552 44.2725C356.439 50.2926 353.383 58.7017 353.383 69.4041C353.383 80.1066 356.439 88.5156 362.552 94.5357C368.665 100.556 376.116 103.614 384.999 103.614C399.517 103.614 409.546 96.2558 412.698 83.3555L401.523 80.4888C398.562 88.2289 393.117 92.1468 384.999 92.1468C379.554 92.1468 374.969 90.2356 371.34 86.3178C367.806 82.3999 365.991 76.762 365.991 69.4041C365.991 62.0462 367.806 56.4083 371.34 52.4905C374.969 48.5726 379.554 46.6615 384.999 46.6615C393.117 46.6615 398.562 50.5793 401.523 58.3195L412.698 55.4527Z" fill="black"></path><path d="M859.229 154.593C856.077 141.693 846.048 134.335 831.53 134.335C822.647 134.335 815.197 137.393 809.084 143.413C802.971 149.433 799.914 157.842 799.914 168.545C799.914 179.247 802.971 187.656 809.084 193.676C815.197 199.697 822.647 202.754 831.53 202.754C846.048 202.754 856.077 195.396 859.229 182.496L848.054 179.63C845.093 187.37 839.649 191.287 831.53 191.287C826.085 191.287 821.501 189.376 817.871 185.458C814.337 181.541 812.522 175.903 812.522 168.545C812.522 161.187 814.337 155.549 817.871 151.631C821.501 147.713 826.085 145.802 831.53 145.802C839.649 145.802 845.093 149.72 848.054 157.46L859.229 154.593Z" fill="black"></path><path d="M694.421 102.945H707.411L689.741 75.042C699.197 72.7486 705.023 65.3907 705.023 55.7394C705.023 44.2725 696.905 35.1946 683.819 35.1946H653.062V102.945H664.621V76.1887H677.802L694.421 102.945ZM664.621 66.0596V45.3237H681.718C688.786 45.3237 693.371 49.4326 693.371 55.7394C693.371 61.9506 688.786 66.0596 681.718 66.0596H664.621Z" fill="black"></path><path d="M324.489 102.945H337.001L310.639 35.1946H297.362L271 102.945H283.13L289.434 85.9356H318.089L324.489 102.945ZM303.762 47.617L314.077 75.3287H293.446L303.762 47.617Z" fill="black"></path><path d="M324.489 204.474H337.001L310.639 135.53H297.362L271 204.474H283.13L289.434 187.465H318.089L324.489 204.474ZM303.762 149.147L314.077 176.858H293.446L303.762 149.147Z" fill="black"></path><path d="M422.538 182.066L414.133 187.895C415.597 190.953 417.571 193.788 420.055 196.4C422.538 199.012 425.435 201.114 428.747 202.707C432.121 204.236 435.783 205 439.731 205C442.596 205 445.334 204.522 447.945 203.567C450.62 202.675 453.008 201.401 455.109 199.744C457.21 198.024 458.866 195.922 460.076 193.438C461.285 190.953 461.89 188.15 461.89 185.028C461.89 182.098 461.381 179.55 460.362 177.384C459.407 175.218 458.102 173.339 456.446 171.746C454.79 170.09 452.944 168.72 450.906 167.637C448.932 166.554 446.958 165.662 444.984 164.961C441.418 163.687 438.521 162.445 436.292 161.235C434.064 160.024 432.408 158.75 431.326 157.412C430.307 156.011 429.797 154.45 429.797 152.73C429.797 150.819 430.53 149.163 431.994 147.761C433.459 146.296 435.751 145.563 438.871 145.563C441.1 145.563 443.042 146.009 444.698 146.901C446.417 147.729 447.913 148.876 449.187 150.341C450.46 151.743 451.511 153.272 452.339 154.928L461.508 149.768C460.362 147.411 458.77 145.149 456.733 142.983C454.759 140.817 452.307 139.034 449.378 137.632C446.449 136.23 443.01 135.53 439.062 135.53C435.051 135.53 431.453 136.294 428.269 137.823C425.149 139.288 422.665 141.391 420.819 144.13C418.972 146.806 418.049 149.927 418.049 153.495C418.049 156.616 418.654 159.292 419.864 161.521C421.074 163.687 422.602 165.535 424.448 167.064C426.295 168.529 428.237 169.771 430.275 170.79C432.313 171.746 434.159 172.51 435.815 173.084C438.617 174.103 441.068 175.154 443.169 176.237C445.334 177.256 447.022 178.531 448.232 180.06C449.442 181.525 450.047 183.5 450.047 185.984C450.047 188.596 449.091 190.73 447.181 192.386C445.271 194.043 442.787 194.871 439.731 194.871C437.184 194.871 434.891 194.361 432.854 193.342C430.816 192.259 428.938 190.762 427.218 188.851C425.563 186.876 424.003 184.614 422.538 182.066Z" fill="black"></path><path d="M117.5 235.5C182.393 235.5 235 182.893 235 118C235 53.1065 182.393 0.5 117.5 0.5C52.6065 0.5 0 53.1065 0 118C0 182.893 52.6065 235.5 117.5 235.5Z" fill="#C1FD3A"></path><path fill-rule="evenodd" clip-rule="evenodd" d="M169.235 63H170.834C171.753 63 172.499 63.7456 172.499 64.6652V158.474C172.499 159.394 171.753 160.139 170.834 160.139H136.95C136.031 160.139 135.285 159.394 135.285 158.474V89.6439H86.8815C85.9919 89.6439 85.4637 88.6499 85.9614 87.9126L101.79 64.4669C102.41 63.5497 103.444 63 104.551 63H135.285H169.235ZM69.8057 112.313C70.425 111.396 71.4592 110.846 72.5656 110.846H125.368C126.258 110.846 126.786 111.841 126.288 112.578L95.151 158.673C94.5317 159.59 93.4975 160.139 92.3911 160.139H39.5886C38.6989 160.139 38.1706 159.145 38.6687 158.408L69.8057 112.313Z" fill="black"></path><path d="M135.306 89.644V91.8644L135.226 91.161C135.149 90.4803 134.662 89.9165 134 89.74L133.641 89.644H135.306Z" fill="black"></path></g><defs><clipPath id="clip0_768_70"><rect width="862" height="236" fill="white"></rect></clipPath></defs></svg>