<svg xmlns:cc="http://creativecommons.org/ns#" xmlns:dc="http://purl.org/dc/elements/1.1/" xmlns:inkscape="http://www.inkscape.org/namespaces/inkscape" xmlns:rdf="http://www.w3.org/1999/02/22-rdf-syntax-ns#" xmlns:sodipodi="http://sodipodi.sourceforge.net/DTD/sodipodi-0.dtd" xmlns:svg="http://www.w3.org/2000/svg" xmlns="http://www.w3.org/2000/svg" xmlns:xlink="http://www.w3.org/1999/xlink" id="svg8" inkscape:version="0.92.4 (5da689c313, 2019-01-14)" sodipodi:docname="A.svg" x="0px" y="0px" viewBox="0 0 1600 400" style="enable-background:new 0 0 1600 400;" xml:space="preserve"><g id="layer1" transform="translate(260.95542,41.213839)" inkscape:groupmode="layer" inkscape:label="Layer 1">	<path id="path1139" inkscape:connector-curvature="0" sodipodi:nodetypes="ccccccccc" d="M103.7,97.8h50.9l29.7,75.9l30.1-75.9H264  l-74.7,179.7h-49.9l20.4-47.6L103.7,97.8z"></path>	<path id="path1141" inkscape:connector-curvature="0" d="M315.6,94.8c-38.3,0-62.5,34.3-62.5,68.5c0,38.5,26.5,69,61.8,69  c26.3,0,36.2-16,36.2-16v12.5h44.4V97.8h-44.4v11.9C351.1,109.7,340,94.8,315.6,94.8z M325.1,136.8c17.7,0,26.8,14,26.8,26.6  c0,13.6-9.8,26.9-26.8,26.9c-14.1,0-26.8-11.5-26.8-26.3C298.2,149,308.5,136.8,325.1,136.8z"></path>	<path id="path1145" inkscape:connector-curvature="0" sodipodi:nodetypes="ccccccccccccc" d="M410.8,228.7V40h46.5v70.2  c0,0,11-15.4,34.2-15.4c28.3,0,44.9,21.1,44.9,51.2v82.8h-46.1v-71.4c0-10.2-4.9-20-15.8-20c-11.2,0-17,10-17,20v71.4H410.8z"></path>	<path id="path1147" inkscape:connector-curvature="0" d="M615.6,94.8c-43.8,0-69.9,33.3-69.9,69c0,40.6,31.6,68.4,70.1,68.4  c37.3,0,70-26.5,70-67.7C685.7,119.4,651.5,94.8,615.6,94.8z M616,137.2c15.5,0,26.2,12.9,26.2,26.7c0,11.7-10,26.2-26.2,26.2  c-14.9,0-26-11.9-26-26.3C590,149.9,599.2,137.2,616,137.2z"></path>	<path id="path1153" inkscape:connector-curvature="0" d="M763.1,94.8c-43.8,0-69.9,33.3-69.9,69c0,40.6,31.6,68.4,70.1,68.4  c37.3,0,70-26.5,70-67.7C833.3,119.4,799.1,94.8,763.1,94.8z M763.5,137.2c15.5,0,26.2,12.9,26.2,26.7c0,11.7-10,26.2-26.2,26.2  c-14.9,0-26-11.9-26-26.3C737.5,149.9,746.8,137.2,763.5,137.2z"></path>	<circle id="path1155" cx="869.9" cy="200.6" r="30.9"></circle>	<path id="path1157" inkscape:connector-curvature="0" sodipodi:nodetypes="ccccc" d="M910.9,158.4h-55.6L904.7,40H960L910.9,158.4z  "></path></g></svg>